%TF.GenerationSoftware,KiCad,Pcbnew,(6.0.11)*%
%TF.CreationDate,2023-06-18T18:32:15-07:00*%
%TF.ProjectId,usb-b-adapter,7573622d-622d-4616-9461-707465722e6b,rev?*%
%TF.SameCoordinates,Original*%
%TF.FileFunction,Copper,L1,Top*%
%TF.FilePolarity,Positive*%
%FSLAX46Y46*%
G04 Gerber Fmt 4.6, Leading zero omitted, Abs format (unit mm)*
G04 Created by KiCad (PCBNEW (6.0.11)) date 2023-06-18 18:32:15*
%MOMM*%
%LPD*%
G01*
G04 APERTURE LIST*
G04 Aperture macros list*
%AMRoundRect*
0 Rectangle with rounded corners*
0 $1 Rounding radius*
0 $2 $3 $4 $5 $6 $7 $8 $9 X,Y pos of 4 corners*
0 Add a 4 corners polygon primitive as box body*
4,1,4,$2,$3,$4,$5,$6,$7,$8,$9,$2,$3,0*
0 Add four circle primitives for the rounded corners*
1,1,$1+$1,$2,$3*
1,1,$1+$1,$4,$5*
1,1,$1+$1,$6,$7*
1,1,$1+$1,$8,$9*
0 Add four rect primitives between the rounded corners*
20,1,$1+$1,$2,$3,$4,$5,0*
20,1,$1+$1,$4,$5,$6,$7,0*
20,1,$1+$1,$6,$7,$8,$9,0*
20,1,$1+$1,$8,$9,$2,$3,0*%
G04 Aperture macros list end*
%TA.AperFunction,ComponentPad*%
%ADD10R,1.700000X1.700000*%
%TD*%
%TA.AperFunction,ComponentPad*%
%ADD11C,1.700000*%
%TD*%
%TA.AperFunction,CastellatedPad*%
%ADD12C,3.500000*%
%TD*%
%TA.AperFunction,SMDPad,CuDef*%
%ADD13R,1.140000X0.600000*%
%TD*%
%TA.AperFunction,SMDPad,CuDef*%
%ADD14R,1.140000X0.300000*%
%TD*%
%TA.AperFunction,ComponentPad*%
%ADD15O,2.000000X0.900000*%
%TD*%
%TA.AperFunction,ComponentPad*%
%ADD16O,1.700000X0.900000*%
%TD*%
%TA.AperFunction,SMDPad,CuDef*%
%ADD17RoundRect,0.100000X-0.130000X-0.100000X0.130000X-0.100000X0.130000X0.100000X-0.130000X0.100000X0*%
%TD*%
%TA.AperFunction,ViaPad*%
%ADD18C,0.800000*%
%TD*%
%TA.AperFunction,Conductor*%
%ADD19C,0.200000*%
%TD*%
%TA.AperFunction,Conductor*%
%ADD20C,0.400000*%
%TD*%
G04 APERTURE END LIST*
D10*
%TO.P,J1,1,VBUS*%
%TO.N,VBUS*%
X121920000Y-104140000D03*
D11*
%TO.P,J1,2,D-*%
%TO.N,/D-*%
X121920000Y-106640000D03*
%TO.P,J1,3,D+*%
%TO.N,/D+*%
X123920000Y-106640000D03*
%TO.P,J1,4,GND*%
%TO.N,GND*%
X123920000Y-104140000D03*
D12*
%TO.P,J1,5,Shield*%
X126630000Y-111410000D03*
X126630000Y-99370000D03*
%TD*%
D13*
%TO.P,J2,A1/B12,GND*%
%TO.N,GND*%
X130212500Y-108600000D03*
%TO.P,J2,A4/B9,VBUS*%
%TO.N,VBUS*%
X130212500Y-107800000D03*
D14*
%TO.P,J2,A5,CC1*%
%TO.N,Net-(J2-PadA5)*%
X130212500Y-106650000D03*
%TO.P,J2,A6,DP1*%
%TO.N,/D+*%
X130212500Y-105650000D03*
%TO.P,J2,A7,DN1*%
%TO.N,/D-*%
X130212500Y-105150000D03*
%TO.P,J2,A8,SBU1*%
%TO.N,unconnected-(J2-PadA8)*%
X130212500Y-104150000D03*
D13*
%TO.P,J2,B1/A12,GND*%
%TO.N,GND*%
X130212500Y-102200000D03*
%TO.P,J2,B4/A9,VBUS*%
%TO.N,VBUS*%
X130212500Y-103000000D03*
D14*
%TO.P,J2,B5,CC2*%
%TO.N,Net-(J2-PadB5)*%
X130212500Y-103650000D03*
%TO.P,J2,B6,DP2*%
%TO.N,/D+*%
X130212500Y-104650000D03*
%TO.P,J2,B7,DN2*%
%TO.N,/D-*%
X130212500Y-106150000D03*
%TO.P,J2,B8,SBU2*%
%TO.N,unconnected-(J2-PadB8)*%
X130212500Y-107150000D03*
D15*
%TO.P,J2,S1,SHIELD*%
%TO.N,GND*%
X130792500Y-109725000D03*
%TO.P,J2,S2,SHIELD*%
X130792500Y-101075000D03*
D16*
%TO.P,J2,S3,SHIELD*%
X134962500Y-109725000D03*
%TO.P,J2,S4,SHIELD*%
X134962500Y-101075000D03*
%TD*%
D17*
%TO.P,R1,1*%
%TO.N,GND*%
X127780000Y-106600000D03*
%TO.P,R1,2*%
%TO.N,Net-(J2-PadA5)*%
X128420000Y-106600000D03*
%TD*%
%TO.P,R2,1*%
%TO.N,GND*%
X127780000Y-103700000D03*
%TO.P,R2,2*%
%TO.N,Net-(J2-PadB5)*%
X128420000Y-103700000D03*
%TD*%
D18*
%TO.N,VBUS*%
X128100000Y-108200000D03*
X127150000Y-102500000D03*
%TO.N,GND*%
X120800000Y-109000000D03*
X126900000Y-107200000D03*
X132950000Y-101050000D03*
X132900000Y-109750000D03*
X126850000Y-103700000D03*
X120850000Y-101700000D03*
%TD*%
D19*
%TO.N,Net-(J2-PadA5)*%
X128470000Y-106650000D02*
X130212500Y-106650000D01*
X128420000Y-106600000D02*
X128470000Y-106650000D01*
%TO.N,/D-*%
X131050000Y-106150000D02*
X130212500Y-106150000D01*
X121920000Y-106640000D02*
X122756500Y-107476500D01*
X130212500Y-105150000D02*
X130982500Y-105150000D01*
X122756500Y-107476500D02*
X122756500Y-108487724D01*
X129270999Y-106063500D02*
X129357499Y-106150000D01*
X122756500Y-108487724D02*
X123132276Y-108863500D01*
X130982500Y-105150000D02*
X131150000Y-105317500D01*
X123132276Y-108863500D02*
X125217724Y-108863500D01*
X125913500Y-108167724D02*
X125913500Y-106717724D01*
X126567724Y-106063500D02*
X129270999Y-106063500D01*
X125913500Y-106717724D02*
X126567724Y-106063500D01*
X125217724Y-108863500D02*
X125913500Y-108167724D01*
X131150000Y-106050000D02*
X131050000Y-106150000D01*
X129357499Y-106150000D02*
X130212500Y-106150000D01*
X131150000Y-105317500D02*
X131150000Y-106050000D01*
%TO.N,/D+*%
X125082276Y-108536500D02*
X123267724Y-108536500D01*
X127263500Y-105270663D02*
X127263500Y-105536500D01*
X130212500Y-104650000D02*
X129300000Y-104650000D01*
X129050000Y-105500000D02*
X128813500Y-105736500D01*
X123083500Y-107476500D02*
X123920000Y-106640000D01*
X128813500Y-105736500D02*
X128663500Y-105736500D01*
X128463500Y-105536500D02*
X128463500Y-105270663D01*
X127063500Y-105736500D02*
X127013500Y-105736500D01*
X129300000Y-104650000D02*
X129050000Y-104900000D01*
X127663500Y-105536500D02*
X127663500Y-105270663D01*
X129050000Y-104900000D02*
X129050000Y-105500000D01*
X126432276Y-105736500D02*
X125586500Y-106582276D01*
X123267724Y-108536500D02*
X123083500Y-108352276D01*
X129270999Y-105736500D02*
X129357499Y-105650000D01*
X128813500Y-105736500D02*
X129270999Y-105736500D01*
X129357499Y-105650000D02*
X130212500Y-105650000D01*
X125586500Y-106582276D02*
X125586500Y-108032276D01*
X128063500Y-105270663D02*
X128063500Y-105536500D01*
X123083500Y-108352276D02*
X123083500Y-107476500D01*
X125586500Y-108032276D02*
X125082276Y-108536500D01*
X127013500Y-105736500D02*
X126432276Y-105736500D01*
X127063500Y-105736500D02*
G75*
G03*
X127263500Y-105536500I0J200000D01*
G01*
X127463500Y-105070700D02*
G75*
G02*
X127663500Y-105270663I0J-200000D01*
G01*
X128463500Y-105536500D02*
G75*
G03*
X128663500Y-105736500I200000J0D01*
G01*
X127663500Y-105536500D02*
G75*
G03*
X127863500Y-105736500I200000J0D01*
G01*
X127863500Y-105736500D02*
G75*
G03*
X128063500Y-105536500I0J200000D01*
G01*
X127263463Y-105270663D02*
G75*
G02*
X127463500Y-105070663I200037J-37D01*
G01*
X128063463Y-105270663D02*
G75*
G02*
X128263500Y-105070663I200037J-37D01*
G01*
X128263500Y-105070700D02*
G75*
G02*
X128463500Y-105270663I0J-200000D01*
G01*
%TO.N,Net-(J2-PadB5)*%
X128420000Y-103700000D02*
X130162500Y-103700000D01*
X130162500Y-103700000D02*
X130212500Y-103650000D01*
D20*
%TO.N,VBUS*%
X130212500Y-107800000D02*
X129150000Y-107800000D01*
X128750000Y-108200000D02*
X128100000Y-108200000D01*
X129050000Y-103000000D02*
X130212500Y-103000000D01*
X127250000Y-102600000D02*
X128650000Y-102600000D01*
X127150000Y-102500000D02*
X127250000Y-102600000D01*
X128650000Y-102600000D02*
X129050000Y-103000000D01*
X128750000Y-108200000D02*
X129150000Y-107800000D01*
%TD*%
%TA.AperFunction,Conductor*%
%TO.N,GND*%
G36*
X124622640Y-99320502D02*
G01*
X124669133Y-99374158D01*
X124680422Y-99421553D01*
X124686650Y-99580079D01*
X124687625Y-99588908D01*
X124735638Y-99851804D01*
X124737847Y-99860407D01*
X124822424Y-100113914D01*
X124825823Y-100122121D01*
X124945276Y-100361183D01*
X124949801Y-100368834D01*
X125101740Y-100588673D01*
X125107295Y-100595607D01*
X125151095Y-100642990D01*
X125164727Y-100651144D01*
X125165245Y-100651128D01*
X125173859Y-100645828D01*
X126482283Y-99337405D01*
X126544595Y-99303379D01*
X126571378Y-99300500D01*
X126688622Y-99300500D01*
X126756743Y-99320502D01*
X126777717Y-99337405D01*
X128083626Y-100643313D01*
X128097026Y-100650631D01*
X128106929Y-100643645D01*
X128208746Y-100522519D01*
X128213972Y-100515326D01*
X128355391Y-100288568D01*
X128359543Y-100280728D01*
X128467604Y-100036297D01*
X128470614Y-100027936D01*
X128543151Y-99770738D01*
X128544955Y-99762030D01*
X128580696Y-99495936D01*
X128581224Y-99489543D01*
X128583330Y-99422541D01*
X128605463Y-99355083D01*
X128660552Y-99310298D01*
X128709268Y-99300500D01*
X129014760Y-99300500D01*
X129082881Y-99320502D01*
X129103855Y-99337405D01*
X130035126Y-100268676D01*
X130069152Y-100330988D01*
X130064087Y-100401803D01*
X130021540Y-100458639D01*
X129992415Y-100474923D01*
X129934240Y-100497956D01*
X129920458Y-100505533D01*
X129800422Y-100592745D01*
X129788955Y-100603514D01*
X129694378Y-100717837D01*
X129685949Y-100731119D01*
X129622776Y-100865370D01*
X129617914Y-100880330D01*
X129608495Y-100929706D01*
X129609766Y-100942745D01*
X129624688Y-100947500D01*
X131966408Y-100947500D01*
X131979939Y-100943527D01*
X131980949Y-100936500D01*
X131937763Y-100803586D01*
X131931062Y-100789348D01*
X131851563Y-100664076D01*
X131845556Y-100656815D01*
X131817546Y-100591577D01*
X131829253Y-100521552D01*
X131876960Y-100468973D01*
X131942641Y-100450500D01*
X133967775Y-100450500D01*
X134035896Y-100470502D01*
X134082389Y-100524158D01*
X134092493Y-100594432D01*
X134064860Y-100656816D01*
X134014375Y-100717842D01*
X134005949Y-100731119D01*
X133942776Y-100865370D01*
X133937914Y-100880330D01*
X133928495Y-100929706D01*
X133929766Y-100942745D01*
X133944688Y-100947500D01*
X135986408Y-100947500D01*
X135999939Y-100943527D01*
X136000949Y-100936500D01*
X135957763Y-100803586D01*
X135951062Y-100789348D01*
X135871563Y-100664076D01*
X135865556Y-100656815D01*
X135837546Y-100591577D01*
X135849253Y-100521552D01*
X135896960Y-100468973D01*
X135962641Y-100450500D01*
X136773500Y-100450500D01*
X136841621Y-100470502D01*
X136888114Y-100524158D01*
X136899500Y-100576500D01*
X136899500Y-110223500D01*
X136879498Y-110291621D01*
X136825842Y-110338114D01*
X136773500Y-110349500D01*
X135957225Y-110349500D01*
X135889104Y-110329498D01*
X135842611Y-110275842D01*
X135832507Y-110205568D01*
X135860140Y-110143184D01*
X135910625Y-110082158D01*
X135919051Y-110068881D01*
X135982224Y-109934630D01*
X135987086Y-109919670D01*
X135996505Y-109870294D01*
X135995234Y-109857255D01*
X135980312Y-109852500D01*
X133938592Y-109852500D01*
X133925061Y-109856473D01*
X133924051Y-109863500D01*
X133967237Y-109996414D01*
X133973938Y-110010652D01*
X134053437Y-110135924D01*
X134059444Y-110143185D01*
X134087454Y-110208423D01*
X134075747Y-110278448D01*
X134028040Y-110331027D01*
X133962359Y-110349500D01*
X131937225Y-110349500D01*
X131869104Y-110329498D01*
X131822611Y-110275842D01*
X131812507Y-110205568D01*
X131840140Y-110143184D01*
X131890625Y-110082158D01*
X131899051Y-110068881D01*
X131962224Y-109934630D01*
X131967086Y-109919670D01*
X131976505Y-109870294D01*
X131975234Y-109857255D01*
X131960312Y-109852500D01*
X129618592Y-109852500D01*
X129605061Y-109856473D01*
X129604051Y-109863500D01*
X129647237Y-109996414D01*
X129653938Y-110010652D01*
X129733437Y-110135923D01*
X129743466Y-110148046D01*
X129851626Y-110249615D01*
X129864346Y-110258857D01*
X129971037Y-110317511D01*
X130021095Y-110367856D01*
X130035988Y-110437273D01*
X130010987Y-110503722D01*
X129999430Y-110517021D01*
X129153854Y-111362596D01*
X129091542Y-111396621D01*
X129064759Y-111399500D01*
X128701631Y-111399500D01*
X128633510Y-111379498D01*
X128587017Y-111325842D01*
X128575946Y-111282399D01*
X128565792Y-111138993D01*
X128564539Y-111130183D01*
X128508292Y-110868925D01*
X128505816Y-110860404D01*
X128413317Y-110609674D01*
X128409662Y-110601579D01*
X128282758Y-110366385D01*
X128277999Y-110358887D01*
X128119231Y-110143932D01*
X128113448Y-110137160D01*
X128111129Y-110134805D01*
X128097248Y-110127083D01*
X128095673Y-110127183D01*
X128088663Y-110131650D01*
X126857717Y-111362595D01*
X126795405Y-111396621D01*
X126768622Y-111399500D01*
X126764378Y-111399500D01*
X126696257Y-111379498D01*
X126649764Y-111325842D01*
X126639660Y-111255568D01*
X126669154Y-111190988D01*
X126675283Y-111184405D01*
X127906233Y-109953454D01*
X127913088Y-109940902D01*
X127904881Y-109929832D01*
X127706870Y-109778714D01*
X127699444Y-109773837D01*
X127466269Y-109643253D01*
X127458243Y-109639476D01*
X127303747Y-109579706D01*
X129608495Y-109579706D01*
X129609766Y-109592745D01*
X129624688Y-109597500D01*
X130646885Y-109597500D01*
X130662124Y-109593025D01*
X130663329Y-109591635D01*
X130665000Y-109583952D01*
X130665000Y-109093115D01*
X130660525Y-109077876D01*
X130659135Y-109076671D01*
X130651452Y-109075000D01*
X130205565Y-109075000D01*
X130197675Y-109075497D01*
X130087432Y-109089423D01*
X130072199Y-109093334D01*
X129934240Y-109147956D01*
X129920458Y-109155533D01*
X129800422Y-109242745D01*
X129788955Y-109253514D01*
X129694378Y-109367837D01*
X129685949Y-109381119D01*
X129622776Y-109515370D01*
X129617914Y-109530330D01*
X129608495Y-109579706D01*
X127303747Y-109579706D01*
X127208986Y-109543046D01*
X127200513Y-109540439D01*
X126940165Y-109480094D01*
X126931387Y-109478704D01*
X126665140Y-109455644D01*
X126656269Y-109455504D01*
X126389419Y-109470190D01*
X126380609Y-109471304D01*
X126118505Y-109523439D01*
X126109930Y-109525785D01*
X125857790Y-109614329D01*
X125849624Y-109617863D01*
X125612476Y-109741053D01*
X125604904Y-109745692D01*
X125387474Y-109901070D01*
X125380620Y-109906740D01*
X125356079Y-109930151D01*
X125348140Y-109943910D01*
X125348190Y-109944956D01*
X125353083Y-109952770D01*
X126584717Y-111184405D01*
X126618743Y-111246717D01*
X126613678Y-111317533D01*
X126571131Y-111374368D01*
X126504611Y-111399179D01*
X126495622Y-111399500D01*
X126491378Y-111399500D01*
X126423257Y-111379498D01*
X126402283Y-111362595D01*
X125174773Y-110135086D01*
X125161932Y-110128074D01*
X125151244Y-110135868D01*
X125015828Y-110307643D01*
X125010839Y-110314985D01*
X124876611Y-110546073D01*
X124872699Y-110554060D01*
X124772374Y-110801752D01*
X124769630Y-110810196D01*
X124705203Y-111069561D01*
X124703676Y-111078312D01*
X124682362Y-111286342D01*
X124655521Y-111352070D01*
X124597406Y-111392852D01*
X124557018Y-111399500D01*
X120526500Y-111399500D01*
X120458379Y-111379498D01*
X120411886Y-111325842D01*
X120400500Y-111273500D01*
X120400500Y-106625262D01*
X120864520Y-106625262D01*
X120865036Y-106631406D01*
X120880852Y-106819748D01*
X120881759Y-106830553D01*
X120883458Y-106836478D01*
X120930369Y-107000075D01*
X120938544Y-107028586D01*
X120941359Y-107034063D01*
X120941360Y-107034066D01*
X121029897Y-107206341D01*
X121032712Y-107211818D01*
X121160677Y-107373270D01*
X121165370Y-107377264D01*
X121165371Y-107377265D01*
X121286381Y-107480252D01*
X121317564Y-107506791D01*
X121497398Y-107607297D01*
X121592238Y-107638112D01*
X121687471Y-107669056D01*
X121687475Y-107669057D01*
X121693329Y-107670959D01*
X121897894Y-107695351D01*
X121904029Y-107694879D01*
X121904031Y-107694879D01*
X121960039Y-107690569D01*
X122103300Y-107679546D01*
X122109230Y-107677890D01*
X122109232Y-107677890D01*
X122296116Y-107625711D01*
X122367107Y-107626658D01*
X122426316Y-107665834D01*
X122454945Y-107730802D01*
X122456000Y-107747070D01*
X122456000Y-108435358D01*
X122455804Y-108438031D01*
X122454075Y-108443066D01*
X122454511Y-108454688D01*
X122454511Y-108454690D01*
X122455911Y-108491979D01*
X122456000Y-108496705D01*
X122456000Y-108515672D01*
X122456882Y-108520407D01*
X122457110Y-108523933D01*
X122458274Y-108554932D01*
X122462864Y-108565617D01*
X122463901Y-108570217D01*
X122467462Y-108581938D01*
X122469161Y-108586341D01*
X122471291Y-108597777D01*
X122477395Y-108607679D01*
X122484227Y-108618763D01*
X122492731Y-108635135D01*
X122498951Y-108649612D01*
X122498953Y-108649616D01*
X122502464Y-108657787D01*
X122506478Y-108662673D01*
X122508663Y-108664858D01*
X122510715Y-108667121D01*
X122510555Y-108667266D01*
X122517675Y-108676273D01*
X122523927Y-108683168D01*
X122530032Y-108693072D01*
X122551820Y-108709640D01*
X122564639Y-108720834D01*
X122882757Y-109038952D01*
X122884513Y-109040986D01*
X122886851Y-109045769D01*
X122895380Y-109053681D01*
X122895381Y-109053682D01*
X122922753Y-109079073D01*
X122926158Y-109082353D01*
X122939553Y-109095748D01*
X122943523Y-109098472D01*
X122946171Y-109100797D01*
X122953704Y-109107785D01*
X122968922Y-109121901D01*
X122979729Y-109126213D01*
X122983714Y-109128732D01*
X122994523Y-109134504D01*
X122998828Y-109136411D01*
X123008422Y-109142993D01*
X123029336Y-109147956D01*
X123032412Y-109148686D01*
X123050008Y-109154251D01*
X123072898Y-109163383D01*
X123079191Y-109164000D01*
X123082273Y-109164000D01*
X123085343Y-109164150D01*
X123085332Y-109164366D01*
X123096707Y-109165698D01*
X123106021Y-109166153D01*
X123117342Y-109168840D01*
X123128871Y-109167271D01*
X123128872Y-109167271D01*
X123144449Y-109165151D01*
X123161440Y-109164000D01*
X125165358Y-109164000D01*
X125168031Y-109164196D01*
X125173066Y-109165925D01*
X125184688Y-109165489D01*
X125184690Y-109165489D01*
X125221979Y-109164089D01*
X125226705Y-109164000D01*
X125245672Y-109164000D01*
X125250407Y-109163118D01*
X125253933Y-109162890D01*
X125257673Y-109162749D01*
X125284932Y-109161726D01*
X125295617Y-109157136D01*
X125300217Y-109156099D01*
X125311938Y-109152538D01*
X125316341Y-109150839D01*
X125327777Y-109148709D01*
X125348765Y-109135772D01*
X125365135Y-109127269D01*
X125379612Y-109121049D01*
X125379616Y-109121047D01*
X125387787Y-109117536D01*
X125392673Y-109113522D01*
X125394858Y-109111337D01*
X125397121Y-109109285D01*
X125397266Y-109109445D01*
X125406273Y-109102325D01*
X125413168Y-109096073D01*
X125423072Y-109089968D01*
X125439640Y-109068180D01*
X125450834Y-109055361D01*
X126088952Y-108417243D01*
X126090986Y-108415487D01*
X126095769Y-108413149D01*
X126129073Y-108377247D01*
X126132353Y-108373842D01*
X126145748Y-108360447D01*
X126148472Y-108356477D01*
X126150797Y-108353829D01*
X126163990Y-108339606D01*
X126171901Y-108331078D01*
X126176213Y-108320271D01*
X126178732Y-108316286D01*
X126184504Y-108305477D01*
X126186411Y-108301172D01*
X126192993Y-108291578D01*
X126198686Y-108267588D01*
X126204251Y-108249992D01*
X126210086Y-108235366D01*
X126213383Y-108227102D01*
X126214000Y-108220809D01*
X126214000Y-108217727D01*
X126214150Y-108214657D01*
X126214366Y-108214668D01*
X126215698Y-108203293D01*
X126216153Y-108193979D01*
X126218840Y-108182658D01*
X126215151Y-108155551D01*
X126214000Y-108138560D01*
X126214000Y-106894385D01*
X126234002Y-106826264D01*
X126250905Y-106805290D01*
X126655290Y-106400905D01*
X126717602Y-106366879D01*
X126744385Y-106364000D01*
X127863500Y-106364000D01*
X127931621Y-106384002D01*
X127978114Y-106437658D01*
X127989500Y-106490000D01*
X127989500Y-106744646D01*
X127992618Y-106770846D01*
X127996456Y-106779486D01*
X127996456Y-106779487D01*
X128024310Y-106842195D01*
X128038061Y-106873153D01*
X128117287Y-106952241D01*
X128127924Y-106956944D01*
X128127926Y-106956945D01*
X128166925Y-106974186D01*
X128219673Y-106997506D01*
X128245354Y-107000500D01*
X128594646Y-107000500D01*
X128598350Y-107000059D01*
X128598353Y-107000059D01*
X128605746Y-106999179D01*
X128620846Y-106997382D01*
X128645483Y-106986439D01*
X128701968Y-106961349D01*
X128753116Y-106950500D01*
X129316000Y-106950500D01*
X129384121Y-106970502D01*
X129430614Y-107024158D01*
X129442000Y-107076500D01*
X129442000Y-107273500D01*
X129421998Y-107341621D01*
X129368342Y-107388114D01*
X129316000Y-107399500D01*
X129118481Y-107399500D01*
X129118477Y-107399501D01*
X129086567Y-107399501D01*
X129077140Y-107402564D01*
X129077133Y-107402565D01*
X129065647Y-107406297D01*
X129046427Y-107410911D01*
X129034493Y-107412801D01*
X129034485Y-107412803D01*
X129024696Y-107414354D01*
X129015865Y-107418854D01*
X129015861Y-107418855D01*
X129005093Y-107424342D01*
X128986832Y-107431906D01*
X128965910Y-107438704D01*
X128950918Y-107449597D01*
X128948116Y-107451632D01*
X128931259Y-107461962D01*
X128920493Y-107467448D01*
X128920492Y-107467449D01*
X128911658Y-107471950D01*
X128889091Y-107494517D01*
X128653724Y-107729883D01*
X128591412Y-107763909D01*
X128520597Y-107758844D01*
X128487925Y-107740751D01*
X128409392Y-107680491D01*
X128402841Y-107675464D01*
X128256762Y-107614956D01*
X128100000Y-107594318D01*
X127943238Y-107614956D01*
X127797159Y-107675464D01*
X127671718Y-107771718D01*
X127575464Y-107897159D01*
X127514956Y-108043238D01*
X127494318Y-108200000D01*
X127495396Y-108208188D01*
X127506018Y-108288867D01*
X127514956Y-108356762D01*
X127575464Y-108502841D01*
X127671718Y-108628282D01*
X127797159Y-108724536D01*
X127943238Y-108785044D01*
X128100000Y-108805682D01*
X128108188Y-108804604D01*
X128248574Y-108786122D01*
X128256762Y-108785044D01*
X128402841Y-108724536D01*
X128528282Y-108628282D01*
X128530072Y-108630614D01*
X128579948Y-108603379D01*
X128606731Y-108600500D01*
X128813433Y-108600500D01*
X128822864Y-108597436D01*
X128822868Y-108597435D01*
X128834353Y-108593703D01*
X128853578Y-108589087D01*
X128865512Y-108587197D01*
X128865513Y-108587197D01*
X128875304Y-108585646D01*
X128884137Y-108581145D01*
X128884141Y-108581144D01*
X128894906Y-108575659D01*
X128913166Y-108568095D01*
X128934090Y-108561296D01*
X128951893Y-108548361D01*
X128968745Y-108538035D01*
X128979502Y-108532554D01*
X128988342Y-108528050D01*
X129010895Y-108505497D01*
X129010910Y-108505483D01*
X129142551Y-108373842D01*
X129278987Y-108237405D01*
X129341300Y-108203380D01*
X129368083Y-108200500D01*
X129405129Y-108200500D01*
X129473250Y-108220502D01*
X129491945Y-108235568D01*
X129497948Y-108244552D01*
X129508264Y-108251445D01*
X129508265Y-108251446D01*
X129532423Y-108267588D01*
X129564269Y-108288867D01*
X129576438Y-108291288D01*
X129576439Y-108291288D01*
X129616684Y-108299293D01*
X129622752Y-108300500D01*
X130619873Y-108300500D01*
X130687994Y-108320502D01*
X130734487Y-108374158D01*
X130743386Y-108401592D01*
X130757733Y-108472743D01*
X130826207Y-108607132D01*
X130928299Y-108718156D01*
X130943686Y-108727696D01*
X131049187Y-108793110D01*
X131049190Y-108793111D01*
X131056486Y-108797635D01*
X131084184Y-108805682D01*
X131161012Y-108828003D01*
X131220848Y-108866216D01*
X131250525Y-108930713D01*
X131240621Y-109001015D01*
X131194282Y-109054803D01*
X131125859Y-109075000D01*
X130938115Y-109075000D01*
X130922876Y-109079475D01*
X130921671Y-109080865D01*
X130920000Y-109088548D01*
X130920000Y-109579385D01*
X130924475Y-109594624D01*
X130925865Y-109595829D01*
X130933548Y-109597500D01*
X131966408Y-109597500D01*
X131979939Y-109593527D01*
X131980949Y-109586500D01*
X131978742Y-109579706D01*
X133928495Y-109579706D01*
X133929766Y-109592745D01*
X133944688Y-109597500D01*
X134816885Y-109597500D01*
X134832124Y-109593025D01*
X134833329Y-109591635D01*
X134835000Y-109583952D01*
X134835000Y-109579385D01*
X135090000Y-109579385D01*
X135094475Y-109594624D01*
X135095865Y-109595829D01*
X135103548Y-109597500D01*
X135986408Y-109597500D01*
X135999939Y-109593527D01*
X136000949Y-109586500D01*
X135957763Y-109453586D01*
X135951062Y-109439348D01*
X135871563Y-109314077D01*
X135861534Y-109301954D01*
X135753374Y-109200385D01*
X135740651Y-109191141D01*
X135610635Y-109119664D01*
X135595999Y-109113869D01*
X135452293Y-109076972D01*
X135436687Y-109075000D01*
X135108115Y-109075000D01*
X135092876Y-109079475D01*
X135091671Y-109080865D01*
X135090000Y-109088548D01*
X135090000Y-109579385D01*
X134835000Y-109579385D01*
X134835000Y-109093115D01*
X134830525Y-109077876D01*
X134829135Y-109076671D01*
X134821452Y-109075000D01*
X134525565Y-109075000D01*
X134517675Y-109075497D01*
X134407432Y-109089423D01*
X134392199Y-109093334D01*
X134254240Y-109147956D01*
X134240458Y-109155533D01*
X134120422Y-109242745D01*
X134108955Y-109253514D01*
X134014378Y-109367837D01*
X134005949Y-109381119D01*
X133942776Y-109515370D01*
X133937914Y-109530330D01*
X133928495Y-109579706D01*
X131978742Y-109579706D01*
X131937763Y-109453586D01*
X131931062Y-109439348D01*
X131851563Y-109314077D01*
X131841534Y-109301954D01*
X131733374Y-109200385D01*
X131720651Y-109191141D01*
X131590635Y-109119664D01*
X131575999Y-109113869D01*
X131432293Y-109076972D01*
X131425473Y-109076110D01*
X131360397Y-109047728D01*
X131320996Y-108988668D01*
X131319780Y-108917682D01*
X131357135Y-108857307D01*
X131415585Y-108830242D01*
X131415149Y-108828681D01*
X131423419Y-108826372D01*
X131431932Y-108825206D01*
X131439817Y-108821794D01*
X131562471Y-108768717D01*
X131562473Y-108768716D01*
X131570355Y-108765305D01*
X131687570Y-108670386D01*
X131765096Y-108561296D01*
X131769966Y-108554444D01*
X131774942Y-108547442D01*
X131826033Y-108405532D01*
X131837080Y-108255109D01*
X131834952Y-108244552D01*
X131808964Y-108115675D01*
X131807267Y-108107257D01*
X131738793Y-107972868D01*
X131636701Y-107861844D01*
X131560657Y-107814695D01*
X131515813Y-107786890D01*
X131515810Y-107786889D01*
X131508514Y-107782365D01*
X131363675Y-107740285D01*
X131356697Y-107739773D01*
X131355292Y-107739669D01*
X131355281Y-107739669D01*
X131352985Y-107739500D01*
X131244715Y-107739500D01*
X131240470Y-107740082D01*
X131240463Y-107740082D01*
X131133068Y-107754794D01*
X131132840Y-107753132D01*
X131071886Y-107752315D01*
X131012679Y-107713135D01*
X130984054Y-107648165D01*
X130983000Y-107631905D01*
X130983000Y-107480252D01*
X130971926Y-107424579D01*
X130971926Y-107375421D01*
X130983000Y-107319748D01*
X130983000Y-106980252D01*
X130971926Y-106924579D01*
X130971926Y-106875421D01*
X130983000Y-106819748D01*
X130983000Y-106574623D01*
X131003002Y-106506502D01*
X131056658Y-106460009D01*
X131104270Y-106448712D01*
X131105584Y-106448663D01*
X131105587Y-106448662D01*
X131117208Y-106448226D01*
X131127892Y-106443636D01*
X131132493Y-106442599D01*
X131144214Y-106439038D01*
X131148617Y-106437339D01*
X131160053Y-106435209D01*
X131181041Y-106422272D01*
X131197411Y-106413769D01*
X131211888Y-106407549D01*
X131211892Y-106407547D01*
X131220063Y-106404036D01*
X131224949Y-106400022D01*
X131227119Y-106397852D01*
X131229402Y-106395782D01*
X131229547Y-106395942D01*
X131238544Y-106388830D01*
X131245444Y-106382574D01*
X131255348Y-106376468D01*
X131271909Y-106354689D01*
X131283110Y-106341861D01*
X131325452Y-106299519D01*
X131327488Y-106297762D01*
X131332269Y-106295425D01*
X131365575Y-106259521D01*
X131368854Y-106256118D01*
X131382248Y-106242724D01*
X131384978Y-106238745D01*
X131387286Y-106236116D01*
X131408401Y-106213354D01*
X131412712Y-106202547D01*
X131415238Y-106198552D01*
X131421001Y-106187758D01*
X131422912Y-106183446D01*
X131429492Y-106173854D01*
X131435183Y-106149873D01*
X131440748Y-106132276D01*
X131446588Y-106117638D01*
X131446589Y-106117635D01*
X131449883Y-106109378D01*
X131450500Y-106103085D01*
X131450500Y-106100006D01*
X131450650Y-106096933D01*
X131450866Y-106096944D01*
X131452198Y-106085569D01*
X131452654Y-106076254D01*
X131455340Y-106064934D01*
X131451651Y-106037827D01*
X131450500Y-106020836D01*
X131450500Y-105369866D01*
X131450696Y-105367193D01*
X131452425Y-105362158D01*
X131450589Y-105313245D01*
X131450500Y-105308519D01*
X131450500Y-105289552D01*
X131449618Y-105284817D01*
X131449390Y-105281291D01*
X131448662Y-105261915D01*
X131448226Y-105250292D01*
X131443636Y-105239607D01*
X131442599Y-105235007D01*
X131439038Y-105223286D01*
X131437339Y-105218883D01*
X131435209Y-105207447D01*
X131422272Y-105186459D01*
X131413769Y-105170089D01*
X131407548Y-105155609D01*
X131407545Y-105155604D01*
X131404036Y-105147437D01*
X131400023Y-105142551D01*
X131397840Y-105140368D01*
X131395776Y-105138092D01*
X131395937Y-105137946D01*
X131388835Y-105128961D01*
X131382571Y-105122053D01*
X131376468Y-105112152D01*
X131367209Y-105105112D01*
X131367208Y-105105110D01*
X131354692Y-105095593D01*
X131341864Y-105084392D01*
X131232018Y-104974546D01*
X131230263Y-104972513D01*
X131227925Y-104967731D01*
X131192024Y-104934428D01*
X131188619Y-104931148D01*
X131175223Y-104917752D01*
X131171253Y-104915028D01*
X131168605Y-104912703D01*
X131154381Y-104899508D01*
X131154378Y-104899506D01*
X131145854Y-104891599D01*
X131135050Y-104887289D01*
X131131061Y-104884767D01*
X131120273Y-104879006D01*
X131115948Y-104877089D01*
X131106354Y-104870508D01*
X131095035Y-104867822D01*
X131095033Y-104867821D01*
X131082373Y-104864817D01*
X131064769Y-104859249D01*
X131062303Y-104858265D01*
X131006446Y-104814441D01*
X130983000Y-104741238D01*
X130983000Y-104480252D01*
X130971926Y-104424579D01*
X130971926Y-104375421D01*
X130983000Y-104319748D01*
X130983000Y-103980252D01*
X130971926Y-103924579D01*
X130971926Y-103875421D01*
X130983000Y-103819748D01*
X130983000Y-103480252D01*
X130971926Y-103424579D01*
X130971926Y-103375421D01*
X130983000Y-103319748D01*
X130983000Y-103164102D01*
X131003002Y-103095981D01*
X131056658Y-103049488D01*
X131126932Y-103039384D01*
X131144153Y-103043105D01*
X131194988Y-103057874D01*
X131201325Y-103059715D01*
X131208303Y-103060227D01*
X131209708Y-103060331D01*
X131209719Y-103060331D01*
X131212015Y-103060500D01*
X131320285Y-103060500D01*
X131324530Y-103059918D01*
X131324537Y-103059918D01*
X131385022Y-103051632D01*
X131431932Y-103045206D01*
X131472393Y-103027697D01*
X131562471Y-102988717D01*
X131562473Y-102988716D01*
X131570355Y-102985305D01*
X131687570Y-102890386D01*
X131774942Y-102767442D01*
X131826033Y-102625532D01*
X131837080Y-102475109D01*
X131807267Y-102327257D01*
X131738793Y-102192868D01*
X131636701Y-102081844D01*
X131555154Y-102031283D01*
X131515813Y-102006890D01*
X131515810Y-102006889D01*
X131508514Y-102002365D01*
X131405044Y-101972304D01*
X131389494Y-101967786D01*
X131329659Y-101929572D01*
X131299982Y-101865076D01*
X131309886Y-101794774D01*
X131356225Y-101740986D01*
X131408857Y-101721782D01*
X131497575Y-101710575D01*
X131512801Y-101706666D01*
X131650760Y-101652044D01*
X131664542Y-101644467D01*
X131784578Y-101557255D01*
X131796045Y-101546486D01*
X131890622Y-101432163D01*
X131899051Y-101418881D01*
X131962224Y-101284630D01*
X131967086Y-101269670D01*
X131976505Y-101220294D01*
X131975843Y-101213500D01*
X133924051Y-101213500D01*
X133967237Y-101346414D01*
X133973938Y-101360652D01*
X134053437Y-101485923D01*
X134063466Y-101498046D01*
X134171626Y-101599615D01*
X134184349Y-101608859D01*
X134314365Y-101680336D01*
X134329001Y-101686131D01*
X134472707Y-101723028D01*
X134488313Y-101725000D01*
X134816885Y-101725000D01*
X134832124Y-101720525D01*
X134833329Y-101719135D01*
X134835000Y-101711452D01*
X134835000Y-101706885D01*
X135090000Y-101706885D01*
X135094475Y-101722124D01*
X135095865Y-101723329D01*
X135103548Y-101725000D01*
X135399435Y-101725000D01*
X135407325Y-101724503D01*
X135517568Y-101710577D01*
X135532801Y-101706666D01*
X135670760Y-101652044D01*
X135684542Y-101644467D01*
X135804578Y-101557255D01*
X135816045Y-101546486D01*
X135910622Y-101432163D01*
X135919051Y-101418881D01*
X135982224Y-101284630D01*
X135987086Y-101269670D01*
X135996505Y-101220294D01*
X135995234Y-101207255D01*
X135980312Y-101202500D01*
X135108115Y-101202500D01*
X135092876Y-101206975D01*
X135091671Y-101208365D01*
X135090000Y-101216048D01*
X135090000Y-101706885D01*
X134835000Y-101706885D01*
X134835000Y-101220615D01*
X134830525Y-101205376D01*
X134829135Y-101204171D01*
X134821452Y-101202500D01*
X133938592Y-101202500D01*
X133925061Y-101206473D01*
X133924051Y-101213500D01*
X131975843Y-101213500D01*
X131975234Y-101207255D01*
X131960312Y-101202500D01*
X130938115Y-101202500D01*
X130922876Y-101206975D01*
X130921671Y-101208365D01*
X130920000Y-101216048D01*
X130920000Y-101706885D01*
X130924475Y-101722124D01*
X130925865Y-101723329D01*
X130933548Y-101725000D01*
X131112243Y-101725000D01*
X131180364Y-101745002D01*
X131226857Y-101798658D01*
X131236961Y-101868932D01*
X131207467Y-101933512D01*
X131146126Y-101972359D01*
X131141581Y-101973628D01*
X131133068Y-101974794D01*
X131125184Y-101978206D01*
X131125183Y-101978206D01*
X131002529Y-102031283D01*
X131002527Y-102031284D01*
X130994645Y-102034695D01*
X130877430Y-102129614D01*
X130817208Y-102214354D01*
X130795763Y-102244531D01*
X130790058Y-102252558D01*
X130738967Y-102394468D01*
X130738510Y-102400694D01*
X130705316Y-102462173D01*
X130643165Y-102496493D01*
X130615800Y-102499500D01*
X129622752Y-102499500D01*
X129616684Y-102500707D01*
X129576439Y-102508712D01*
X129576438Y-102508712D01*
X129564269Y-102511133D01*
X129497948Y-102555448D01*
X129492568Y-102563499D01*
X129431915Y-102596620D01*
X129405129Y-102599500D01*
X129268083Y-102599500D01*
X129199962Y-102579498D01*
X129178987Y-102562595D01*
X128910909Y-102294516D01*
X128910895Y-102294503D01*
X128888342Y-102271950D01*
X128868746Y-102261965D01*
X128851893Y-102251639D01*
X128834090Y-102238704D01*
X128813166Y-102231905D01*
X128794906Y-102224341D01*
X128784141Y-102218856D01*
X128784137Y-102218855D01*
X128775304Y-102214354D01*
X128765513Y-102212803D01*
X128765512Y-102212803D01*
X128753578Y-102210913D01*
X128734353Y-102206297D01*
X128722868Y-102202565D01*
X128722864Y-102202564D01*
X128713433Y-102199500D01*
X127738469Y-102199500D01*
X127670348Y-102179498D01*
X127638506Y-102150204D01*
X127583305Y-102078264D01*
X127578282Y-102071718D01*
X127452841Y-101975464D01*
X127306762Y-101914956D01*
X127150000Y-101894318D01*
X126993238Y-101914956D01*
X126847159Y-101975464D01*
X126721718Y-102071718D01*
X126625464Y-102197159D01*
X126564956Y-102343238D01*
X126544318Y-102500000D01*
X126545396Y-102508188D01*
X126560845Y-102625532D01*
X126564956Y-102656762D01*
X126625464Y-102802841D01*
X126721718Y-102928282D01*
X126847159Y-103024536D01*
X126993238Y-103085044D01*
X127150000Y-103105682D01*
X127158188Y-103104604D01*
X127298574Y-103086122D01*
X127306762Y-103085044D01*
X127452841Y-103024536D01*
X127459396Y-103019506D01*
X127463077Y-103017381D01*
X127526078Y-103000500D01*
X128431916Y-103000500D01*
X128500037Y-103020502D01*
X128521011Y-103037405D01*
X128568011Y-103084405D01*
X128602037Y-103146717D01*
X128596972Y-103217532D01*
X128554425Y-103274368D01*
X128487905Y-103299179D01*
X128478916Y-103299500D01*
X128245354Y-103299500D01*
X128241650Y-103299941D01*
X128241647Y-103299941D01*
X128234254Y-103300821D01*
X128219154Y-103302618D01*
X128210514Y-103306456D01*
X128210513Y-103306456D01*
X128169215Y-103324800D01*
X128116847Y-103348061D01*
X128108628Y-103356294D01*
X128108627Y-103356295D01*
X128079327Y-103385646D01*
X128037759Y-103427287D01*
X127992494Y-103529673D01*
X127989500Y-103555354D01*
X127989500Y-103844646D01*
X127992618Y-103870846D01*
X127996456Y-103879486D01*
X127996456Y-103879487D01*
X128018522Y-103929164D01*
X128038061Y-103973153D01*
X128117287Y-104052241D01*
X128127924Y-104056944D01*
X128127926Y-104056945D01*
X128187462Y-104083265D01*
X128219673Y-104097506D01*
X128245354Y-104100500D01*
X128594646Y-104100500D01*
X128598350Y-104100059D01*
X128598353Y-104100059D01*
X128605746Y-104099179D01*
X128620846Y-104097382D01*
X128629487Y-104093544D01*
X128712519Y-104056663D01*
X128712521Y-104056661D01*
X128723153Y-104051939D01*
X128737586Y-104037481D01*
X128799867Y-104003403D01*
X128826757Y-104000500D01*
X129316000Y-104000500D01*
X129384121Y-104020502D01*
X129430614Y-104074158D01*
X129442000Y-104126500D01*
X129442000Y-104222562D01*
X129421998Y-104290683D01*
X129368342Y-104337176D01*
X129320728Y-104348473D01*
X129301850Y-104349182D01*
X129295742Y-104349411D01*
X129291018Y-104349500D01*
X129272052Y-104349500D01*
X129267317Y-104350381D01*
X129263790Y-104350610D01*
X129259254Y-104350780D01*
X129232791Y-104351774D01*
X129222104Y-104356366D01*
X129217492Y-104357405D01*
X129205800Y-104360957D01*
X129201383Y-104362661D01*
X129189947Y-104364791D01*
X129172707Y-104375418D01*
X129168961Y-104377727D01*
X129152589Y-104386231D01*
X129138112Y-104392451D01*
X129138108Y-104392453D01*
X129129937Y-104395964D01*
X129125051Y-104399978D01*
X129122866Y-104402163D01*
X129120603Y-104404215D01*
X129120458Y-104404055D01*
X129111451Y-104411175D01*
X129104556Y-104417427D01*
X129094652Y-104423532D01*
X129078084Y-104445320D01*
X129066890Y-104458139D01*
X128874548Y-104650481D01*
X128872514Y-104652237D01*
X128867731Y-104654575D01*
X128859819Y-104663104D01*
X128859818Y-104663105D01*
X128834427Y-104690477D01*
X128831147Y-104693882D01*
X128817752Y-104707277D01*
X128815028Y-104711247D01*
X128812703Y-104713895D01*
X128799508Y-104728119D01*
X128799506Y-104728122D01*
X128791599Y-104736646D01*
X128787289Y-104747450D01*
X128784767Y-104751439D01*
X128779006Y-104762227D01*
X128777089Y-104766552D01*
X128770508Y-104776146D01*
X128765289Y-104798140D01*
X128730100Y-104859800D01*
X128667160Y-104892649D01*
X128596452Y-104886255D01*
X128575665Y-104875739D01*
X128530512Y-104847372D01*
X128482009Y-104816900D01*
X128475332Y-104814564D01*
X128475328Y-104814562D01*
X128397871Y-104787463D01*
X128375563Y-104779658D01*
X128326004Y-104774075D01*
X128291057Y-104770137D01*
X128283289Y-104769016D01*
X128281824Y-104768758D01*
X128263500Y-104765527D01*
X128244269Y-104768918D01*
X128236542Y-104770033D01*
X128151428Y-104779622D01*
X128044975Y-104816867D01*
X128038986Y-104820629D01*
X128038987Y-104820629D01*
X127955466Y-104873100D01*
X127955465Y-104873101D01*
X127949477Y-104876863D01*
X127944475Y-104881864D01*
X127942022Y-104883820D01*
X127876290Y-104910649D01*
X127806487Y-104897682D01*
X127784916Y-104883819D01*
X127782507Y-104881898D01*
X127777500Y-104876892D01*
X127771465Y-104873100D01*
X127719768Y-104840622D01*
X127682009Y-104816900D01*
X127675332Y-104814564D01*
X127675328Y-104814562D01*
X127597871Y-104787463D01*
X127575563Y-104779658D01*
X127526004Y-104774075D01*
X127491057Y-104770137D01*
X127483289Y-104769016D01*
X127481824Y-104768758D01*
X127463500Y-104765527D01*
X127444269Y-104768918D01*
X127436542Y-104770033D01*
X127351428Y-104779622D01*
X127244975Y-104816867D01*
X127149477Y-104876863D01*
X127144476Y-104881864D01*
X127144475Y-104881864D01*
X127115685Y-104910649D01*
X127069722Y-104956604D01*
X127065960Y-104962589D01*
X127065958Y-104962592D01*
X127062251Y-104968490D01*
X127009707Y-105052091D01*
X126998399Y-105084392D01*
X126976329Y-105147437D01*
X126972443Y-105158537D01*
X126968836Y-105190500D01*
X126968758Y-105191194D01*
X126966457Y-105204166D01*
X126963617Y-105211285D01*
X126963000Y-105217578D01*
X126963000Y-105233308D01*
X126961082Y-105255206D01*
X126958364Y-105270607D01*
X126960276Y-105281461D01*
X126961090Y-105286082D01*
X126963000Y-105307940D01*
X126963000Y-105310000D01*
X126942998Y-105378121D01*
X126889342Y-105424614D01*
X126837000Y-105436000D01*
X126484642Y-105436000D01*
X126481969Y-105435804D01*
X126476934Y-105434075D01*
X126465312Y-105434511D01*
X126465310Y-105434511D01*
X126428021Y-105435911D01*
X126423295Y-105436000D01*
X126404328Y-105436000D01*
X126399593Y-105436882D01*
X126396067Y-105437110D01*
X126392327Y-105437251D01*
X126365068Y-105438274D01*
X126354383Y-105442864D01*
X126349783Y-105443901D01*
X126338062Y-105447462D01*
X126333659Y-105449161D01*
X126322223Y-105451291D01*
X126301237Y-105464227D01*
X126284865Y-105472731D01*
X126270388Y-105478951D01*
X126270384Y-105478953D01*
X126262213Y-105482464D01*
X126257327Y-105486478D01*
X126255142Y-105488663D01*
X126252879Y-105490715D01*
X126252734Y-105490555D01*
X126243727Y-105497675D01*
X126236832Y-105503927D01*
X126226928Y-105510032D01*
X126210360Y-105531820D01*
X126199166Y-105544639D01*
X125411048Y-106332757D01*
X125409014Y-106334513D01*
X125404231Y-106336851D01*
X125396319Y-106345380D01*
X125396318Y-106345381D01*
X125370927Y-106372753D01*
X125367647Y-106376158D01*
X125354252Y-106389553D01*
X125351528Y-106393523D01*
X125349203Y-106396171D01*
X125336008Y-106410395D01*
X125336006Y-106410398D01*
X125328099Y-106418922D01*
X125323789Y-106429726D01*
X125321267Y-106433715D01*
X125315506Y-106444503D01*
X125313589Y-106448828D01*
X125307008Y-106458422D01*
X125304322Y-106469741D01*
X125304321Y-106469743D01*
X125301317Y-106482403D01*
X125295752Y-106500000D01*
X125286617Y-106522898D01*
X125286000Y-106529191D01*
X125286000Y-106532270D01*
X125285850Y-106535343D01*
X125285634Y-106535332D01*
X125284302Y-106546707D01*
X125283846Y-106556022D01*
X125281160Y-106567342D01*
X125282729Y-106578871D01*
X125282729Y-106578872D01*
X125284849Y-106594449D01*
X125286000Y-106611440D01*
X125286000Y-107855615D01*
X125265998Y-107923736D01*
X125249095Y-107944710D01*
X124994710Y-108199095D01*
X124932398Y-108233121D01*
X124905615Y-108236000D01*
X123510000Y-108236000D01*
X123441879Y-108215998D01*
X123395386Y-108162342D01*
X123384000Y-108110000D01*
X123384000Y-107743876D01*
X123404002Y-107675755D01*
X123457658Y-107629262D01*
X123527932Y-107619158D01*
X123548936Y-107624043D01*
X123687471Y-107669056D01*
X123687475Y-107669057D01*
X123693329Y-107670959D01*
X123897894Y-107695351D01*
X123904029Y-107694879D01*
X123904031Y-107694879D01*
X123960039Y-107690569D01*
X124103300Y-107679546D01*
X124109230Y-107677890D01*
X124109232Y-107677890D01*
X124233104Y-107643304D01*
X124301725Y-107624145D01*
X124307214Y-107621372D01*
X124307220Y-107621370D01*
X124480116Y-107534033D01*
X124485610Y-107531258D01*
X124552548Y-107478961D01*
X124643101Y-107408213D01*
X124647951Y-107404424D01*
X124652201Y-107399501D01*
X124778540Y-107253134D01*
X124778540Y-107253133D01*
X124782564Y-107248472D01*
X124803387Y-107211818D01*
X124844475Y-107139489D01*
X124884323Y-107069344D01*
X124949351Y-106873863D01*
X124975171Y-106669474D01*
X124975583Y-106640000D01*
X124955480Y-106434970D01*
X124895935Y-106237749D01*
X124799218Y-106055849D01*
X124725859Y-105965902D01*
X124672906Y-105900975D01*
X124672903Y-105900972D01*
X124669011Y-105896200D01*
X124651786Y-105881950D01*
X124515025Y-105768811D01*
X124515021Y-105768809D01*
X124510275Y-105764882D01*
X124329055Y-105666897D01*
X124132254Y-105605977D01*
X124126129Y-105605333D01*
X124126128Y-105605333D01*
X123933498Y-105585087D01*
X123933496Y-105585087D01*
X123927369Y-105584443D01*
X123840529Y-105592346D01*
X123728342Y-105602555D01*
X123728339Y-105602556D01*
X123722203Y-105603114D01*
X123524572Y-105661280D01*
X123342002Y-105756726D01*
X123337201Y-105760586D01*
X123337198Y-105760588D01*
X123326971Y-105768811D01*
X123181447Y-105885815D01*
X123049024Y-106043630D01*
X123046053Y-106049033D01*
X123046051Y-106049037D01*
X123030999Y-106076417D01*
X122980654Y-106126476D01*
X122911237Y-106141370D01*
X122844788Y-106116370D01*
X122809333Y-106074872D01*
X122802112Y-106061291D01*
X122802110Y-106061287D01*
X122799218Y-106055849D01*
X122725859Y-105965902D01*
X122672906Y-105900975D01*
X122672903Y-105900972D01*
X122669011Y-105896200D01*
X122651786Y-105881950D01*
X122515025Y-105768811D01*
X122515021Y-105768809D01*
X122510275Y-105764882D01*
X122329055Y-105666897D01*
X122132254Y-105605977D01*
X122126129Y-105605333D01*
X122126128Y-105605333D01*
X121933498Y-105585087D01*
X121933496Y-105585087D01*
X121927369Y-105584443D01*
X121840529Y-105592346D01*
X121728342Y-105602555D01*
X121728339Y-105602556D01*
X121722203Y-105603114D01*
X121524572Y-105661280D01*
X121342002Y-105756726D01*
X121337201Y-105760586D01*
X121337198Y-105760588D01*
X121326971Y-105768811D01*
X121181447Y-105885815D01*
X121049024Y-106043630D01*
X121046056Y-106049028D01*
X121046053Y-106049033D01*
X120983655Y-106162536D01*
X120949776Y-106224162D01*
X120947913Y-106230035D01*
X120902093Y-106374480D01*
X120887484Y-106420532D01*
X120886798Y-106426649D01*
X120886797Y-106426653D01*
X120883578Y-106455354D01*
X120864520Y-106625262D01*
X120400500Y-106625262D01*
X120400500Y-105009748D01*
X120869500Y-105009748D01*
X120870707Y-105015816D01*
X120877923Y-105052091D01*
X120881133Y-105068231D01*
X120925448Y-105134552D01*
X120935761Y-105141443D01*
X120961344Y-105158537D01*
X120991769Y-105178867D01*
X121003938Y-105181288D01*
X121003939Y-105181288D01*
X121044184Y-105189293D01*
X121050252Y-105190500D01*
X122789748Y-105190500D01*
X122795816Y-105189293D01*
X122836061Y-105181288D01*
X122836062Y-105181288D01*
X122848231Y-105178867D01*
X122878657Y-105158537D01*
X122904239Y-105141443D01*
X122914552Y-105134552D01*
X122958867Y-105068231D01*
X122962078Y-105052091D01*
X122969293Y-105015816D01*
X122970500Y-105009748D01*
X122970500Y-104968490D01*
X123277952Y-104968490D01*
X123284784Y-104978236D01*
X123313160Y-105002386D01*
X123323230Y-105009385D01*
X123492220Y-105103830D01*
X123503459Y-105108741D01*
X123687578Y-105168564D01*
X123699552Y-105171197D01*
X123891792Y-105194121D01*
X123904041Y-105194378D01*
X124097071Y-105179525D01*
X124109151Y-105177394D01*
X124295607Y-105125334D01*
X124307040Y-105120900D01*
X124479841Y-105033612D01*
X124490200Y-105027038D01*
X124552567Y-104978311D01*
X124561038Y-104966495D01*
X124554504Y-104954817D01*
X123932811Y-104333123D01*
X123918868Y-104325510D01*
X123917034Y-104325641D01*
X123910420Y-104329892D01*
X123285325Y-104954988D01*
X123277952Y-104968490D01*
X122970500Y-104968490D01*
X122970500Y-104908033D01*
X122990502Y-104839912D01*
X123044158Y-104793419D01*
X123086346Y-104785205D01*
X123105011Y-104774676D01*
X123726877Y-104152811D01*
X123733254Y-104141132D01*
X124105510Y-104141132D01*
X124105641Y-104142966D01*
X124109892Y-104149580D01*
X124735221Y-104774908D01*
X124748843Y-104782346D01*
X124758410Y-104775689D01*
X124778128Y-104752847D01*
X124785196Y-104742828D01*
X124880821Y-104574497D01*
X124885810Y-104563291D01*
X124946915Y-104379604D01*
X124949635Y-104367632D01*
X124974228Y-104172963D01*
X124974719Y-104165936D01*
X124975032Y-104143505D01*
X124974739Y-104136513D01*
X124955588Y-103941201D01*
X124953205Y-103929164D01*
X124897252Y-103743840D01*
X124892578Y-103732499D01*
X124801689Y-103561562D01*
X124794909Y-103551358D01*
X124758764Y-103507038D01*
X124746420Y-103498574D01*
X124735448Y-103504865D01*
X124113123Y-104127189D01*
X124105510Y-104141132D01*
X123733254Y-104141132D01*
X123734490Y-104138868D01*
X123734359Y-104137034D01*
X123730108Y-104130420D01*
X123105213Y-103505525D01*
X123078756Y-103491078D01*
X123036113Y-103481801D01*
X122985911Y-103431597D01*
X122970500Y-103371214D01*
X122970500Y-103313592D01*
X123278739Y-103313592D01*
X123285113Y-103324800D01*
X123907189Y-103946877D01*
X123921132Y-103954490D01*
X123922966Y-103954359D01*
X123929580Y-103950108D01*
X124554318Y-103325369D01*
X124561557Y-103312112D01*
X124554368Y-103302007D01*
X124514743Y-103269227D01*
X124504572Y-103262366D01*
X124334280Y-103170291D01*
X124322974Y-103165538D01*
X124138040Y-103108291D01*
X124126027Y-103105825D01*
X123933494Y-103085589D01*
X123921226Y-103085504D01*
X123728439Y-103103048D01*
X123716383Y-103105348D01*
X123530679Y-103160004D01*
X123519295Y-103164603D01*
X123347735Y-103254292D01*
X123337473Y-103261008D01*
X123287208Y-103301422D01*
X123278739Y-103313592D01*
X122970500Y-103313592D01*
X122970500Y-103270252D01*
X122958867Y-103211769D01*
X122914552Y-103145448D01*
X122848231Y-103101133D01*
X122836062Y-103098712D01*
X122836061Y-103098712D01*
X122795816Y-103090707D01*
X122789748Y-103089500D01*
X121050252Y-103089500D01*
X121044184Y-103090707D01*
X121003939Y-103098712D01*
X121003938Y-103098712D01*
X120991769Y-103101133D01*
X120925448Y-103145448D01*
X120881133Y-103211769D01*
X120869500Y-103270252D01*
X120869500Y-105009748D01*
X120400500Y-105009748D01*
X120400500Y-100837377D01*
X125348892Y-100837377D01*
X125356282Y-100847679D01*
X125502419Y-100966653D01*
X125509698Y-100971768D01*
X125738640Y-101109603D01*
X125746554Y-101113636D01*
X125992647Y-101217843D01*
X126001052Y-101220720D01*
X126259376Y-101289214D01*
X126268088Y-101290876D01*
X126533492Y-101322288D01*
X126542357Y-101322706D01*
X126809523Y-101316410D01*
X126818378Y-101315573D01*
X127081991Y-101271696D01*
X127090625Y-101269623D01*
X127268083Y-101213500D01*
X129604051Y-101213500D01*
X129647237Y-101346414D01*
X129653938Y-101360652D01*
X129733437Y-101485923D01*
X129743466Y-101498046D01*
X129851626Y-101599615D01*
X129864349Y-101608859D01*
X129994365Y-101680336D01*
X130009001Y-101686131D01*
X130152707Y-101723028D01*
X130168313Y-101725000D01*
X130646885Y-101725000D01*
X130662124Y-101720525D01*
X130663329Y-101719135D01*
X130665000Y-101711452D01*
X130665000Y-101220615D01*
X130660525Y-101205376D01*
X130659135Y-101204171D01*
X130651452Y-101202500D01*
X129618592Y-101202500D01*
X129605061Y-101206473D01*
X129604051Y-101213500D01*
X127268083Y-101213500D01*
X127345431Y-101189038D01*
X127353693Y-101185767D01*
X127594593Y-101070088D01*
X127602318Y-101065682D01*
X127824514Y-100917216D01*
X127831543Y-100911764D01*
X127902403Y-100848296D01*
X127910766Y-100834801D01*
X127905077Y-100825390D01*
X126642810Y-99563122D01*
X126628869Y-99555510D01*
X126627034Y-99555641D01*
X126620420Y-99559892D01*
X125356058Y-100824254D01*
X125348892Y-100837377D01*
X120400500Y-100837377D01*
X120400500Y-99426500D01*
X120420502Y-99358379D01*
X120474158Y-99311886D01*
X120526500Y-99300500D01*
X124554519Y-99300500D01*
X124622640Y-99320502D01*
G37*
%TD.AperFunction*%
%TD*%
M02*
