%TF.GenerationSoftware,KiCad,Pcbnew,(6.0.11)*%
%TF.CreationDate,2023-06-18T18:32:15-07:00*%
%TF.ProjectId,usb-b-adapter,7573622d-622d-4616-9461-707465722e6b,rev?*%
%TF.SameCoordinates,Original*%
%TF.FileFunction,Legend,Bot*%
%TF.FilePolarity,Positive*%
%FSLAX46Y46*%
G04 Gerber Fmt 4.6, Leading zero omitted, Abs format (unit mm)*
G04 Created by KiCad (PCBNEW (6.0.11)) date 2023-06-18 18:32:15*
%MOMM*%
%LPD*%
G01*
G04 APERTURE LIST*
%ADD10C,0.150000*%
%ADD11R,1.700000X1.700000*%
%ADD12C,1.700000*%
%ADD13C,3.500000*%
%ADD14C,0.600000*%
%ADD15O,2.000000X0.900000*%
%ADD16O,1.700000X0.900000*%
G04 APERTURE END LIST*
D10*
X121335595Y-110752619D02*
X121335595Y-109943095D01*
X121383214Y-109847857D01*
X121430833Y-109800238D01*
X121526071Y-109752619D01*
X121716547Y-109752619D01*
X121811785Y-109800238D01*
X121859404Y-109847857D01*
X121907023Y-109943095D01*
X121907023Y-110752619D01*
X122335595Y-109800238D02*
X122478452Y-109752619D01*
X122716547Y-109752619D01*
X122811785Y-109800238D01*
X122859404Y-109847857D01*
X122907023Y-109943095D01*
X122907023Y-110038333D01*
X122859404Y-110133571D01*
X122811785Y-110181190D01*
X122716547Y-110228809D01*
X122526071Y-110276428D01*
X122430833Y-110324047D01*
X122383214Y-110371666D01*
X122335595Y-110466904D01*
X122335595Y-110562142D01*
X122383214Y-110657380D01*
X122430833Y-110705000D01*
X122526071Y-110752619D01*
X122764166Y-110752619D01*
X122907023Y-110705000D01*
X123668928Y-110276428D02*
X123811785Y-110228809D01*
X123859404Y-110181190D01*
X123907023Y-110085952D01*
X123907023Y-109943095D01*
X123859404Y-109847857D01*
X123811785Y-109800238D01*
X123716547Y-109752619D01*
X123335595Y-109752619D01*
X123335595Y-110752619D01*
X123668928Y-110752619D01*
X123764166Y-110705000D01*
X123811785Y-110657380D01*
X123859404Y-110562142D01*
X123859404Y-110466904D01*
X123811785Y-110371666D01*
X123764166Y-110324047D01*
X123668928Y-110276428D01*
X123335595Y-110276428D01*
X121907023Y-108237857D02*
X121859404Y-108190238D01*
X121716547Y-108142619D01*
X121621309Y-108142619D01*
X121478452Y-108190238D01*
X121383214Y-108285476D01*
X121335595Y-108380714D01*
X121287976Y-108571190D01*
X121287976Y-108714047D01*
X121335595Y-108904523D01*
X121383214Y-108999761D01*
X121478452Y-109095000D01*
X121621309Y-109142619D01*
X121716547Y-109142619D01*
X121859404Y-109095000D01*
X121907023Y-109047380D01*
X122335595Y-108142619D02*
X122335595Y-108809285D01*
X122335595Y-108618809D02*
X122383214Y-108714047D01*
X122430833Y-108761666D01*
X122526071Y-108809285D01*
X122621309Y-108809285D01*
X123097500Y-108142619D02*
X123002261Y-108190238D01*
X122954642Y-108237857D01*
X122907023Y-108333095D01*
X122907023Y-108618809D01*
X122954642Y-108714047D01*
X123002261Y-108761666D01*
X123097500Y-108809285D01*
X123240357Y-108809285D01*
X123335595Y-108761666D01*
X123383214Y-108714047D01*
X123430833Y-108618809D01*
X123430833Y-108333095D01*
X123383214Y-108237857D01*
X123335595Y-108190238D01*
X123240357Y-108142619D01*
X123097500Y-108142619D01*
X123764166Y-108809285D02*
X123954642Y-108142619D01*
X124145119Y-108618809D01*
X124335595Y-108142619D01*
X124526071Y-108809285D01*
X124907023Y-108142619D02*
X124907023Y-109142619D01*
X124907023Y-108761666D02*
X125002261Y-108809285D01*
X125192738Y-108809285D01*
X125287976Y-108761666D01*
X125335595Y-108714047D01*
X125383214Y-108618809D01*
X125383214Y-108333095D01*
X125335595Y-108237857D01*
X125287976Y-108190238D01*
X125192738Y-108142619D01*
X125002261Y-108142619D01*
X124907023Y-108190238D01*
X126240357Y-108142619D02*
X126240357Y-108666428D01*
X126192738Y-108761666D01*
X126097500Y-108809285D01*
X125907023Y-108809285D01*
X125811785Y-108761666D01*
X126240357Y-108190238D02*
X126145119Y-108142619D01*
X125907023Y-108142619D01*
X125811785Y-108190238D01*
X125764166Y-108285476D01*
X125764166Y-108380714D01*
X125811785Y-108475952D01*
X125907023Y-108523571D01*
X126145119Y-108523571D01*
X126240357Y-108571190D01*
X126716547Y-108142619D02*
X126716547Y-108809285D01*
X126716547Y-108618809D02*
X126764166Y-108714047D01*
X126811785Y-108761666D01*
X126907023Y-108809285D01*
X127002261Y-108809285D01*
X135528809Y-107852380D02*
X135576428Y-107900000D01*
X135624047Y-107995238D01*
X135624047Y-108090476D01*
X135576428Y-108185714D01*
X135528809Y-108233333D01*
X135433571Y-108280952D01*
X135338333Y-108280952D01*
X135243095Y-108233333D01*
X135195476Y-108185714D01*
X135147857Y-108090476D01*
X135147857Y-107995238D01*
X135195476Y-107900000D01*
X135243095Y-107852380D01*
X135624047Y-107852380D02*
X135243095Y-107852380D01*
X135195476Y-107804761D01*
X135195476Y-107757142D01*
X135243095Y-107661904D01*
X135338333Y-107614285D01*
X135576428Y-107614285D01*
X135719285Y-107709523D01*
X135814523Y-107852380D01*
X135862142Y-108042857D01*
X135814523Y-108233333D01*
X135719285Y-108376190D01*
X135576428Y-108471428D01*
X135385952Y-108519047D01*
X135195476Y-108471428D01*
X135052619Y-108376190D01*
X134957380Y-108233333D01*
X134909761Y-108042857D01*
X134957380Y-107852380D01*
X135052619Y-107709523D01*
X135052619Y-107185714D02*
X135719285Y-107185714D01*
X136052619Y-107185714D02*
X136005000Y-107233333D01*
X135957380Y-107185714D01*
X136005000Y-107138095D01*
X136052619Y-107185714D01*
X135957380Y-107185714D01*
X135719285Y-106709523D02*
X135052619Y-106709523D01*
X135624047Y-106709523D02*
X135671666Y-106661904D01*
X135719285Y-106566666D01*
X135719285Y-106423809D01*
X135671666Y-106328571D01*
X135576428Y-106280952D01*
X135052619Y-106280952D01*
X135052619Y-105376190D02*
X136052619Y-105376190D01*
X135100238Y-105376190D02*
X135052619Y-105471428D01*
X135052619Y-105661904D01*
X135100238Y-105757142D01*
X135147857Y-105804761D01*
X135243095Y-105852380D01*
X135528809Y-105852380D01*
X135624047Y-105804761D01*
X135671666Y-105757142D01*
X135719285Y-105661904D01*
X135719285Y-105471428D01*
X135671666Y-105376190D01*
X135052619Y-104900000D02*
X135719285Y-104900000D01*
X135528809Y-104900000D02*
X135624047Y-104852380D01*
X135671666Y-104804761D01*
X135719285Y-104709523D01*
X135719285Y-104614285D01*
X135052619Y-104138095D02*
X135100238Y-104233333D01*
X135147857Y-104280952D01*
X135243095Y-104328571D01*
X135528809Y-104328571D01*
X135624047Y-104280952D01*
X135671666Y-104233333D01*
X135719285Y-104138095D01*
X135719285Y-103995238D01*
X135671666Y-103900000D01*
X135624047Y-103852380D01*
X135528809Y-103804761D01*
X135243095Y-103804761D01*
X135147857Y-103852380D01*
X135100238Y-103900000D01*
X135052619Y-103995238D01*
X135052619Y-104138095D01*
X135052619Y-103376190D02*
X135719285Y-103376190D01*
X135528809Y-103376190D02*
X135624047Y-103328571D01*
X135671666Y-103280952D01*
X135719285Y-103185714D01*
X135719285Y-103090476D01*
X135052619Y-102328571D02*
X135576428Y-102328571D01*
X135671666Y-102376190D01*
X135719285Y-102471428D01*
X135719285Y-102661904D01*
X135671666Y-102757142D01*
X135100238Y-102328571D02*
X135052619Y-102423809D01*
X135052619Y-102661904D01*
X135100238Y-102757142D01*
X135195476Y-102804761D01*
X135290714Y-102804761D01*
X135385952Y-102757142D01*
X135433571Y-102661904D01*
X135433571Y-102423809D01*
X135481190Y-102328571D01*
X134347380Y-107114285D02*
X134395000Y-107066666D01*
X134442619Y-106971428D01*
X134442619Y-106733333D01*
X134395000Y-106638095D01*
X134347380Y-106590476D01*
X134252142Y-106542857D01*
X134156904Y-106542857D01*
X134014047Y-106590476D01*
X133442619Y-107161904D01*
X133442619Y-106542857D01*
X134442619Y-105923809D02*
X134442619Y-105828571D01*
X134395000Y-105733333D01*
X134347380Y-105685714D01*
X134252142Y-105638095D01*
X134061666Y-105590476D01*
X133823571Y-105590476D01*
X133633095Y-105638095D01*
X133537857Y-105685714D01*
X133490238Y-105733333D01*
X133442619Y-105828571D01*
X133442619Y-105923809D01*
X133490238Y-106019047D01*
X133537857Y-106066666D01*
X133633095Y-106114285D01*
X133823571Y-106161904D01*
X134061666Y-106161904D01*
X134252142Y-106114285D01*
X134347380Y-106066666D01*
X134395000Y-106019047D01*
X134442619Y-105923809D01*
X134347380Y-105209523D02*
X134395000Y-105161904D01*
X134442619Y-105066666D01*
X134442619Y-104828571D01*
X134395000Y-104733333D01*
X134347380Y-104685714D01*
X134252142Y-104638095D01*
X134156904Y-104638095D01*
X134014047Y-104685714D01*
X133442619Y-105257142D01*
X133442619Y-104638095D01*
X134347380Y-104257142D02*
X134395000Y-104209523D01*
X134442619Y-104114285D01*
X134442619Y-103876190D01*
X134395000Y-103780952D01*
X134347380Y-103733333D01*
X134252142Y-103685714D01*
X134156904Y-103685714D01*
X134014047Y-103733333D01*
X133442619Y-104304761D01*
X133442619Y-103685714D01*
%LPC*%
D11*
%TO.C,J1*%
X121920000Y-104140000D03*
D12*
X121920000Y-106640000D03*
X123920000Y-106640000D03*
X123920000Y-104140000D03*
D13*
X126630000Y-111410000D03*
X126630000Y-99370000D03*
%TD*%
D14*
%TO.C,J2*%
X131282500Y-108290000D03*
X131282500Y-102510000D03*
D15*
X130792500Y-109725000D03*
X130792500Y-101075000D03*
D16*
X134962500Y-109725000D03*
X134962500Y-101075000D03*
%TD*%
M02*
