M48
; DRILL file {KiCad (6.0.11)} date Sun Jun 18 18:32:15 2023
; FORMAT={-:-/ absolute / inch / decimal}
; #@! TF.CreationDate,2023-06-18T18:32:15-07:00
; #@! TF.GenerationSoftware,Kicad,Pcbnew,(6.0.11)
; #@! TF.FileFunction,Plated,1,2,PTH
FMAT,2
INCH
; #@! TA.AperFunction,Plated,PTH,ViaDrill
T1C0.0157
; #@! TA.AperFunction,Plated,PTH,ComponentDrill
T2C0.0236
; #@! TA.AperFunction,Plated,PTH,ComponentDrill
T3C0.0362
; #@! TA.AperFunction,Plated,PTH,ComponentDrill
T4C0.0917
%
G90
G05
T1
X4.7559Y-4.2913
X4.7579Y-4.0039
X4.9941Y-4.0827
X4.9961Y-4.2205
X5.0059Y-4.0354
X5.0433Y-4.2598
X5.2323Y-4.3209
X5.2343Y-3.9783
T3
X4.8Y-4.1
X4.8Y-4.1984
X4.8787Y-4.1
X4.8787Y-4.1984
T4
X4.9854Y-3.9122
X4.9854Y-4.3862
T2
G00X5.1277Y-3.9793
M15
G01X5.171Y-3.9793
M16
G05
G00X5.1286Y-4.3199
M15
G01X5.17Y-4.3199
M16
G05
G00X5.2977Y-3.9793
M15
G01X5.3292Y-3.9793
M16
G05
G00X5.2977Y-4.3199
M15
G01X5.3292Y-4.3199
M16
G05
T0
M30
