%TF.GenerationSoftware,KiCad,Pcbnew,(6.0.11)*%
%TF.CreationDate,2023-06-18T18:32:15-07:00*%
%TF.ProjectId,usb-b-adapter,7573622d-622d-4616-9461-707465722e6b,rev?*%
%TF.SameCoordinates,Original*%
%TF.FileFunction,Legend,Top*%
%TF.FilePolarity,Positive*%
%FSLAX46Y46*%
G04 Gerber Fmt 4.6, Leading zero omitted, Abs format (unit mm)*
G04 Created by KiCad (PCBNEW (6.0.11)) date 2023-06-18 18:32:15*
%MOMM*%
%LPD*%
G01*
G04 APERTURE LIST*
G04 Aperture macros list*
%AMRoundRect*
0 Rectangle with rounded corners*
0 $1 Rounding radius*
0 $2 $3 $4 $5 $6 $7 $8 $9 X,Y pos of 4 corners*
0 Add a 4 corners polygon primitive as box body*
4,1,4,$2,$3,$4,$5,$6,$7,$8,$9,$2,$3,0*
0 Add four circle primitives for the rounded corners*
1,1,$1+$1,$2,$3*
1,1,$1+$1,$4,$5*
1,1,$1+$1,$6,$7*
1,1,$1+$1,$8,$9*
0 Add four rect primitives between the rounded corners*
20,1,$1+$1,$2,$3,$4,$5,0*
20,1,$1+$1,$4,$5,$6,$7,0*
20,1,$1+$1,$6,$7,$8,$9,0*
20,1,$1+$1,$8,$9,$2,$3,0*%
G04 Aperture macros list end*
%ADD10C,0.150000*%
%ADD11C,0.125000*%
%ADD12C,0.127000*%
%ADD13C,0.200000*%
%ADD14C,0.010000*%
%ADD15R,1.700000X1.700000*%
%ADD16C,1.700000*%
%ADD17C,3.500000*%
%ADD18C,0.600000*%
%ADD19O,2.000000X0.900000*%
%ADD20O,1.700000X0.900000*%
%ADD21RoundRect,0.100000X-0.130000X-0.100000X0.130000X-0.100000X0.130000X0.100000X-0.130000X0.100000X0*%
G04 APERTURE END LIST*
D10*
%TO.C,J1*%
X121481904Y-102542380D02*
X121481904Y-102923333D01*
X121862857Y-102961428D01*
X121824761Y-102923333D01*
X121786666Y-102847142D01*
X121786666Y-102656666D01*
X121824761Y-102580476D01*
X121862857Y-102542380D01*
X121939047Y-102504285D01*
X122129523Y-102504285D01*
X122205714Y-102542380D01*
X122243809Y-102580476D01*
X122281904Y-102656666D01*
X122281904Y-102847142D01*
X122243809Y-102923333D01*
X122205714Y-102961428D01*
X121481904Y-102275714D02*
X122281904Y-102009047D01*
X121481904Y-101742380D01*
X123520000Y-102499523D02*
X123481904Y-102575714D01*
X123481904Y-102690000D01*
X123520000Y-102804285D01*
X123596190Y-102880476D01*
X123672380Y-102918571D01*
X123824761Y-102956666D01*
X123939047Y-102956666D01*
X124091428Y-102918571D01*
X124167619Y-102880476D01*
X124243809Y-102804285D01*
X124281904Y-102690000D01*
X124281904Y-102613809D01*
X124243809Y-102499523D01*
X124205714Y-102461428D01*
X123939047Y-102461428D01*
X123939047Y-102613809D01*
X124281904Y-102118571D02*
X123481904Y-102118571D01*
X124281904Y-101661428D01*
X123481904Y-101661428D01*
X124281904Y-101280476D02*
X123481904Y-101280476D01*
X123481904Y-101090000D01*
X123520000Y-100975714D01*
X123596190Y-100899523D01*
X123672380Y-100861428D01*
X123824761Y-100823333D01*
X123939047Y-100823333D01*
X124091428Y-100861428D01*
X124167619Y-100899523D01*
X124243809Y-100975714D01*
X124281904Y-101090000D01*
X124281904Y-101280476D01*
X122236666Y-109256666D02*
X121536666Y-109256666D01*
X121536666Y-109090000D01*
X121570000Y-108990000D01*
X121636666Y-108923333D01*
X121703333Y-108890000D01*
X121836666Y-108856666D01*
X121936666Y-108856666D01*
X122070000Y-108890000D01*
X122136666Y-108923333D01*
X122203333Y-108990000D01*
X122236666Y-109090000D01*
X122236666Y-109256666D01*
X121970000Y-108556666D02*
X121970000Y-108023333D01*
X124236666Y-109256666D02*
X123536666Y-109256666D01*
X123536666Y-109090000D01*
X123570000Y-108990000D01*
X123636666Y-108923333D01*
X123703333Y-108890000D01*
X123836666Y-108856666D01*
X123936666Y-108856666D01*
X124070000Y-108890000D01*
X124136666Y-108923333D01*
X124203333Y-108990000D01*
X124236666Y-109090000D01*
X124236666Y-109256666D01*
X123970000Y-108556666D02*
X123970000Y-108023333D01*
X124236666Y-108290000D02*
X123703333Y-108290000D01*
%TO.C,J2*%
X133466666Y-104852380D02*
X133466666Y-105566666D01*
X133419047Y-105709523D01*
X133323809Y-105804761D01*
X133180952Y-105852380D01*
X133085714Y-105852380D01*
X133895238Y-104947619D02*
X133942857Y-104900000D01*
X134038095Y-104852380D01*
X134276190Y-104852380D01*
X134371428Y-104900000D01*
X134419047Y-104947619D01*
X134466666Y-105042857D01*
X134466666Y-105138095D01*
X134419047Y-105280952D01*
X133847619Y-105852380D01*
X134466666Y-105852380D01*
D11*
%TO.C,R1*%
X128016666Y-106126190D02*
X127850000Y-105888095D01*
X127730952Y-106126190D02*
X127730952Y-105626190D01*
X127921428Y-105626190D01*
X127969047Y-105650000D01*
X127992857Y-105673809D01*
X128016666Y-105721428D01*
X128016666Y-105792857D01*
X127992857Y-105840476D01*
X127969047Y-105864285D01*
X127921428Y-105888095D01*
X127730952Y-105888095D01*
X128492857Y-106126190D02*
X128207142Y-106126190D01*
X128350000Y-106126190D02*
X128350000Y-105626190D01*
X128302380Y-105697619D01*
X128254761Y-105745238D01*
X128207142Y-105769047D01*
%TO.C,R2*%
X128016666Y-104726190D02*
X127850000Y-104488095D01*
X127730952Y-104726190D02*
X127730952Y-104226190D01*
X127921428Y-104226190D01*
X127969047Y-104250000D01*
X127992857Y-104273809D01*
X128016666Y-104321428D01*
X128016666Y-104392857D01*
X127992857Y-104440476D01*
X127969047Y-104464285D01*
X127921428Y-104488095D01*
X127730952Y-104488095D01*
X128207142Y-104273809D02*
X128230952Y-104250000D01*
X128278571Y-104226190D01*
X128397619Y-104226190D01*
X128445238Y-104250000D01*
X128469047Y-104273809D01*
X128492857Y-104321428D01*
X128492857Y-104369047D01*
X128469047Y-104440476D01*
X128183333Y-104726190D01*
X128492857Y-104726190D01*
D12*
%TO.C,J2*%
X132112500Y-109870000D02*
X133792500Y-109870000D01*
X132112500Y-100930000D02*
X133792500Y-100930000D01*
X137562500Y-109870000D02*
X136132500Y-109870000D01*
X137562500Y-100930000D02*
X136132500Y-100930000D01*
X137562500Y-109870000D02*
X137562500Y-100930000D01*
D13*
X129062500Y-108600000D02*
G75*
G03*
X129062500Y-108600000I-100000J0D01*
G01*
%TD*%
%LPC*%
%TO.C,J2*%
G36*
X130832500Y-106350000D02*
G01*
X129592500Y-106350000D01*
X129592500Y-105950000D01*
X130832500Y-105950000D01*
X130832500Y-106350000D01*
G37*
D14*
X130832500Y-106350000D02*
X129592500Y-106350000D01*
X129592500Y-105950000D01*
X130832500Y-105950000D01*
X130832500Y-106350000D01*
G36*
X130832500Y-105350000D02*
G01*
X129592500Y-105350000D01*
X129592500Y-104950000D01*
X130832500Y-104950000D01*
X130832500Y-105350000D01*
G37*
X130832500Y-105350000D02*
X129592500Y-105350000D01*
X129592500Y-104950000D01*
X130832500Y-104950000D01*
X130832500Y-105350000D01*
G36*
X130832500Y-107350000D02*
G01*
X129592500Y-107350000D01*
X129592500Y-106950000D01*
X130832500Y-106950000D01*
X130832500Y-107350000D01*
G37*
X130832500Y-107350000D02*
X129592500Y-107350000D01*
X129592500Y-106950000D01*
X130832500Y-106950000D01*
X130832500Y-107350000D01*
G36*
X130832500Y-104350000D02*
G01*
X129592500Y-104350000D01*
X129592500Y-103950000D01*
X130832500Y-103950000D01*
X130832500Y-104350000D01*
G37*
X130832500Y-104350000D02*
X129592500Y-104350000D01*
X129592500Y-103950000D01*
X130832500Y-103950000D01*
X130832500Y-104350000D01*
G36*
X130832500Y-108950000D02*
G01*
X129592500Y-108950000D01*
X129592500Y-108250000D01*
X130832500Y-108250000D01*
X130832500Y-108950000D01*
G37*
X130832500Y-108950000D02*
X129592500Y-108950000D01*
X129592500Y-108250000D01*
X130832500Y-108250000D01*
X130832500Y-108950000D01*
G36*
X130832500Y-103350000D02*
G01*
X129592500Y-103350000D01*
X129592500Y-102650000D01*
X130832500Y-102650000D01*
X130832500Y-103350000D01*
G37*
X130832500Y-103350000D02*
X129592500Y-103350000D01*
X129592500Y-102650000D01*
X130832500Y-102650000D01*
X130832500Y-103350000D01*
G36*
X130832500Y-103850000D02*
G01*
X129592500Y-103850000D01*
X129592500Y-103450000D01*
X130832500Y-103450000D01*
X130832500Y-103850000D01*
G37*
X130832500Y-103850000D02*
X129592500Y-103850000D01*
X129592500Y-103450000D01*
X130832500Y-103450000D01*
X130832500Y-103850000D01*
G36*
X130832500Y-106850000D02*
G01*
X129592500Y-106850000D01*
X129592500Y-106450000D01*
X130832500Y-106450000D01*
X130832500Y-106850000D01*
G37*
X130832500Y-106850000D02*
X129592500Y-106850000D01*
X129592500Y-106450000D01*
X130832500Y-106450000D01*
X130832500Y-106850000D01*
G36*
X130832500Y-108150000D02*
G01*
X129592500Y-108150000D01*
X129592500Y-107450000D01*
X130832500Y-107450000D01*
X130832500Y-108150000D01*
G37*
X130832500Y-108150000D02*
X129592500Y-108150000D01*
X129592500Y-107450000D01*
X130832500Y-107450000D01*
X130832500Y-108150000D01*
G36*
X130832500Y-105850000D02*
G01*
X129592500Y-105850000D01*
X129592500Y-105450000D01*
X130832500Y-105450000D01*
X130832500Y-105850000D01*
G37*
X130832500Y-105850000D02*
X129592500Y-105850000D01*
X129592500Y-105450000D01*
X130832500Y-105450000D01*
X130832500Y-105850000D01*
G36*
X130832500Y-104850000D02*
G01*
X129592500Y-104850000D01*
X129592500Y-104450000D01*
X130832500Y-104450000D01*
X130832500Y-104850000D01*
G37*
X130832500Y-104850000D02*
X129592500Y-104850000D01*
X129592500Y-104450000D01*
X130832500Y-104450000D01*
X130832500Y-104850000D01*
G36*
X130832500Y-102550000D02*
G01*
X129592500Y-102550000D01*
X129592500Y-101850000D01*
X130832500Y-101850000D01*
X130832500Y-102550000D01*
G37*
X130832500Y-102550000D02*
X129592500Y-102550000D01*
X129592500Y-101850000D01*
X130832500Y-101850000D01*
X130832500Y-102550000D01*
%TD*%
D15*
%TO.C,J1*%
X121920000Y-104140000D03*
D16*
X121920000Y-106640000D03*
X123920000Y-106640000D03*
X123920000Y-104140000D03*
D17*
X126630000Y-111410000D03*
X126630000Y-99370000D03*
%TD*%
D18*
%TO.C,J2*%
X131282500Y-108290000D03*
X131282500Y-102510000D03*
D19*
X130792500Y-109725000D03*
X130792500Y-101075000D03*
D20*
X134962500Y-109725000D03*
X134962500Y-101075000D03*
%TD*%
D21*
%TO.C,R1*%
X127780000Y-106600000D03*
X128420000Y-106600000D03*
%TD*%
%TO.C,R2*%
X127780000Y-103700000D03*
X128420000Y-103700000D03*
%TD*%
M02*
