%TF.GenerationSoftware,KiCad,Pcbnew,(6.0.11)*%
%TF.CreationDate,2023-06-18T18:32:15-07:00*%
%TF.ProjectId,usb-b-adapter,7573622d-622d-4616-9461-707465722e6b,rev?*%
%TF.SameCoordinates,Original*%
%TF.FileFunction,Soldermask,Top*%
%TF.FilePolarity,Negative*%
%FSLAX46Y46*%
G04 Gerber Fmt 4.6, Leading zero omitted, Abs format (unit mm)*
G04 Created by KiCad (PCBNEW (6.0.11)) date 2023-06-18 18:32:15*
%MOMM*%
%LPD*%
G01*
G04 APERTURE LIST*
G04 Aperture macros list*
%AMRoundRect*
0 Rectangle with rounded corners*
0 $1 Rounding radius*
0 $2 $3 $4 $5 $6 $7 $8 $9 X,Y pos of 4 corners*
0 Add a 4 corners polygon primitive as box body*
4,1,4,$2,$3,$4,$5,$6,$7,$8,$9,$2,$3,0*
0 Add four circle primitives for the rounded corners*
1,1,$1+$1,$2,$3*
1,1,$1+$1,$4,$5*
1,1,$1+$1,$6,$7*
1,1,$1+$1,$8,$9*
0 Add four rect primitives between the rounded corners*
20,1,$1+$1,$2,$3,$4,$5,0*
20,1,$1+$1,$4,$5,$6,$7,0*
20,1,$1+$1,$6,$7,$8,$9,0*
20,1,$1+$1,$8,$9,$2,$3,0*%
G04 Aperture macros list end*
%ADD10C,0.010000*%
%ADD11R,1.700000X1.700000*%
%ADD12C,1.700000*%
%ADD13C,3.500000*%
%ADD14C,0.600000*%
%ADD15O,2.000000X0.900000*%
%ADD16O,1.700000X0.900000*%
%ADD17RoundRect,0.100000X-0.130000X-0.100000X0.130000X-0.100000X0.130000X0.100000X-0.130000X0.100000X0*%
G04 APERTURE END LIST*
%TO.C,J2*%
G36*
X130832500Y-106350000D02*
G01*
X129592500Y-106350000D01*
X129592500Y-105950000D01*
X130832500Y-105950000D01*
X130832500Y-106350000D01*
G37*
D10*
X130832500Y-106350000D02*
X129592500Y-106350000D01*
X129592500Y-105950000D01*
X130832500Y-105950000D01*
X130832500Y-106350000D01*
G36*
X130832500Y-105350000D02*
G01*
X129592500Y-105350000D01*
X129592500Y-104950000D01*
X130832500Y-104950000D01*
X130832500Y-105350000D01*
G37*
X130832500Y-105350000D02*
X129592500Y-105350000D01*
X129592500Y-104950000D01*
X130832500Y-104950000D01*
X130832500Y-105350000D01*
G36*
X130832500Y-107350000D02*
G01*
X129592500Y-107350000D01*
X129592500Y-106950000D01*
X130832500Y-106950000D01*
X130832500Y-107350000D01*
G37*
X130832500Y-107350000D02*
X129592500Y-107350000D01*
X129592500Y-106950000D01*
X130832500Y-106950000D01*
X130832500Y-107350000D01*
G36*
X130832500Y-104350000D02*
G01*
X129592500Y-104350000D01*
X129592500Y-103950000D01*
X130832500Y-103950000D01*
X130832500Y-104350000D01*
G37*
X130832500Y-104350000D02*
X129592500Y-104350000D01*
X129592500Y-103950000D01*
X130832500Y-103950000D01*
X130832500Y-104350000D01*
G36*
X130832500Y-108950000D02*
G01*
X129592500Y-108950000D01*
X129592500Y-108250000D01*
X130832500Y-108250000D01*
X130832500Y-108950000D01*
G37*
X130832500Y-108950000D02*
X129592500Y-108950000D01*
X129592500Y-108250000D01*
X130832500Y-108250000D01*
X130832500Y-108950000D01*
G36*
X130832500Y-103350000D02*
G01*
X129592500Y-103350000D01*
X129592500Y-102650000D01*
X130832500Y-102650000D01*
X130832500Y-103350000D01*
G37*
X130832500Y-103350000D02*
X129592500Y-103350000D01*
X129592500Y-102650000D01*
X130832500Y-102650000D01*
X130832500Y-103350000D01*
G36*
X130832500Y-103850000D02*
G01*
X129592500Y-103850000D01*
X129592500Y-103450000D01*
X130832500Y-103450000D01*
X130832500Y-103850000D01*
G37*
X130832500Y-103850000D02*
X129592500Y-103850000D01*
X129592500Y-103450000D01*
X130832500Y-103450000D01*
X130832500Y-103850000D01*
G36*
X130832500Y-106850000D02*
G01*
X129592500Y-106850000D01*
X129592500Y-106450000D01*
X130832500Y-106450000D01*
X130832500Y-106850000D01*
G37*
X130832500Y-106850000D02*
X129592500Y-106850000D01*
X129592500Y-106450000D01*
X130832500Y-106450000D01*
X130832500Y-106850000D01*
G36*
X130832500Y-108150000D02*
G01*
X129592500Y-108150000D01*
X129592500Y-107450000D01*
X130832500Y-107450000D01*
X130832500Y-108150000D01*
G37*
X130832500Y-108150000D02*
X129592500Y-108150000D01*
X129592500Y-107450000D01*
X130832500Y-107450000D01*
X130832500Y-108150000D01*
G36*
X130832500Y-105850000D02*
G01*
X129592500Y-105850000D01*
X129592500Y-105450000D01*
X130832500Y-105450000D01*
X130832500Y-105850000D01*
G37*
X130832500Y-105850000D02*
X129592500Y-105850000D01*
X129592500Y-105450000D01*
X130832500Y-105450000D01*
X130832500Y-105850000D01*
G36*
X130832500Y-104850000D02*
G01*
X129592500Y-104850000D01*
X129592500Y-104450000D01*
X130832500Y-104450000D01*
X130832500Y-104850000D01*
G37*
X130832500Y-104850000D02*
X129592500Y-104850000D01*
X129592500Y-104450000D01*
X130832500Y-104450000D01*
X130832500Y-104850000D01*
G36*
X130832500Y-102550000D02*
G01*
X129592500Y-102550000D01*
X129592500Y-101850000D01*
X130832500Y-101850000D01*
X130832500Y-102550000D01*
G37*
X130832500Y-102550000D02*
X129592500Y-102550000D01*
X129592500Y-101850000D01*
X130832500Y-101850000D01*
X130832500Y-102550000D01*
%TD*%
D11*
%TO.C,J1*%
X121920000Y-104140000D03*
D12*
X121920000Y-106640000D03*
X123920000Y-106640000D03*
X123920000Y-104140000D03*
D13*
X126630000Y-111410000D03*
X126630000Y-99370000D03*
%TD*%
D14*
%TO.C,J2*%
X131282500Y-108290000D03*
X131282500Y-102510000D03*
D15*
X130792500Y-109725000D03*
X130792500Y-101075000D03*
D16*
X134962500Y-109725000D03*
X134962500Y-101075000D03*
%TD*%
D17*
%TO.C,R1*%
X127780000Y-106600000D03*
X128420000Y-106600000D03*
%TD*%
%TO.C,R2*%
X127780000Y-103700000D03*
X128420000Y-103700000D03*
%TD*%
M02*
